# xmcd
#
# Track frame offsets:
#	150
#	15731
#	29157
#	38893
#	48666
#	58519
#	69620
#	83346
#	94257
#	109318
#	117356
#	129966
#	145051
#	157502
#	165158
#	173649
#	190977
#	198162
#	203309
#	209904
#	217420
#	232178
#	243755
#
# Disc length: 3387 seconds
#
# Revision: 0
# Processed by: cddbd v1.5.2PL0 Copyright (c) Steve Scherf et al.
# Submitted via: audiograbber 1.83.01
#
DISCID=410d3917
DTITLE=Mickey Gilley - Mickey Gilley Live
DYEAR=2007
DGENRE=Country
TTITLE0=Intro
TTITLE1=I´m The One Mama Warned you About
TTITLE2=True Love Ways
TTITLE3=Talk To Me
TTITLE4=Put Your Dreams Away
TTITLE5=That´s All That Matters
TTITLE6=Don´t The Girls Get Prettier At Closing Time
TTITLE7=You Don´t Know Me
TTITLE8=I Didn´t KnowYour Memory Loved Jamaica
TTITLE9=Urban Cowboys
TTITLE10=A Headache Tomorrow (Or A Headache Tonight)
TTITLE11=One O´Clock Jump
TTITLE12=Room Full Of Roses - I Overlooked An Orchid
TTITLE13=Window Up Above
TTITLE14=Great Balls Of Fire
TTITLE15=Doo-Wah Days
TTITLE16=Honky Tonk Wine
TTITLE17=Here Comes The Hurt Agay
TTITLE18=Cherokee Fiddle
TTITLE19=Lockin´ For Love
TTITLE20=Stand By Me
TTITLE21=Diggy Liggy Lo
TTITLE22=Outro
EXTD=
EXTT0=
EXTT1=
EXTT2=
EXTT3=
EXTT4=
EXTT5=
EXTT6=
EXTT7=
EXTT8=
EXTT9=
EXTT10=
EXTT11=
EXTT12=
EXTT13=
EXTT14=
EXTT15=
EXTT16=
EXTT17=
EXTT18=
EXTT19=
EXTT20=
EXTT21=
EXTT22=
PLAYORDER=
